<?xml version="1.0" encoding="utf-8"?><svg viewBox="0 0 512 512" xmlns="http://www.w3.org/2000/svg" xmlns:xlink="http://www.w3.org/1999/xlink"><style>:root>svg{display:none}:root>svg:target{display:block}</style><svg fill="none" viewBox="0 0 30 30" id="001-delivery-truck" xmlns="http://www.w3.org/2000/svg"><path d="M24.527 19.728a2.77 2.77 0 00-1.955.806 2.729 2.729 0 00-.819 1.943c0 .733.287 1.417.819 1.943a2.78 2.78 0 001.955.806c1.502 0 2.724-1.234 2.724-2.749 0-1.515-1.222-2.749-2.724-2.749zm0 4.276c-.843 0-1.552-.696-1.552-1.527 0-.83.709-1.527 1.552-1.527.83 0 1.502.684 1.502 1.527 0 .843-.672 1.527-1.502 1.527zm.708-13.433a.593.593 0 00-.41-.159h-3.133a.613.613 0 00-.61.611v5.01c0 .335.274.61.61.61h4.973c.336 0 .61-.275.61-.61v-3.354a.611.611 0 00-.201-.452l-1.839-1.656zm.819 4.85h-3.751v-3.793h2.285l1.466 1.32v2.473zM9.609 19.729a2.77 2.77 0 00-1.955.806 2.729 2.729 0 00-.818 1.943c0 .733.287 1.417.818 1.943.532.519 1.222.806 1.955.806 1.503 0 2.725-1.234 2.725-2.749 0-1.515-1.222-2.749-2.725-2.749zm0 4.276c-.843 0-1.552-.696-1.552-1.527 0-.83.709-1.527 1.552-1.527.83 0 1.503.684 1.503 1.527 0 .843-.672 1.527-1.503 1.527zM5.535 20.48H4.307v-1.625a.613.613 0 00-.611-.611.613.613 0 00-.611.61v2.236c0 .336.275.611.61.611h1.84c.335 0 .61-.275.61-.61a.613.613 0 00-.61-.611zm3.097-3.33a.613.613 0 00-.611-.61H.61a.613.613 0 00-.611.61c0 .336.275.611.61.611h7.41c.337 0 .612-.269.612-.61zM1.85 14.945l7.41.043c.336 0 .61-.269.617-.605a.605.605 0 00-.605-.617l-7.41-.043h-.006a.607.607 0 00-.61.605.605.605 0 00.604.617zm1.246-2.773h7.41c.336 0 .61-.275.61-.611a.613.613 0 00-.61-.611h-7.41a.613.613 0 00-.61.61c0 .337.274.612.61.612zm26.677-.825L25.4 7.725a.601.601 0 00-.39-.141h-5.144v-2.2a.613.613 0 00-.611-.61H3.695a.613.613 0 00-.61.61v4.472c0 .336.275.611.61.611.337 0 .612-.275.612-.61V5.995H18.65V20.48h-5.01a.613.613 0 00-.61.61c0 .336.275.611.61.611h7.46c.336 0 .61-.275.61-.61a.613.613 0 00-.61-.611h-1.228V8.806h4.923l3.983 3.299-.043 8.362H28.1a.613.613 0 00-.61.611c0 .336.274.611.61.611h1.24c.336 0 .611-.269.611-.605l.049-9.26a.645.645 0 00-.226-.477z" fill="#000"/></svg><svg fill="none" viewBox="0 0 30 30" id="002-sedan" xmlns="http://www.w3.org/2000/svg"><path d="M5.625 16.25A3.13 3.13 0 002.5 19.375 3.13 3.13 0 005.625 22.5a3.13 3.13 0 003.125-3.125 3.13 3.13 0 00-3.125-3.125zm0 5a1.877 1.877 0 01-1.875-1.875c0-1.034.841-1.875 1.875-1.875s1.875.841 1.875 1.875a1.877 1.877 0 01-1.875 1.875zM24.375 16.25a3.13 3.13 0 00-3.125 3.125 3.13 3.13 0 003.125 3.125 3.13 3.13 0 003.125-3.125 3.13 3.13 0 00-3.125-3.125zm0 5a1.877 1.877 0 01-1.875-1.875c0-1.034.841-1.875 1.875-1.875s1.875.841 1.875 1.875a1.877 1.877 0 01-1.875 1.875z" fill="#000"/><path d="M26.25 12.5h-1.058c-.386 0-.765-.133-1.067-.375L19.2 8.185a3.142 3.142 0 00-1.953-.685H8.213c-1.048 0-2.02.52-2.6 1.391L4.549 10.49a1.711 1.711 0 01-1.424.761A3.13 3.13 0 000 14.375v2.5A3.13 3.13 0 003.125 20a.625.625 0 000-1.25 1.877 1.877 0 01-1.875-1.875v-2.5c0-1.034.841-1.875 1.875-1.875.992 0 1.912-.492 2.464-1.319l1.063-1.596a1.873 1.873 0 011.56-.835h9.035c.425 0 .84.146 1.173.411l4.925 3.939c.521.419 1.179.65 1.849.65h1.056c1.834 0 2.5 1.869 2.5 3.125 0 1.231-.942 1.875-1.875 1.875a.625.625 0 000 1.25C28.656 20 30 18.656 30 16.875c0-2.121-1.314-4.375-3.75-4.375z" fill="#000"/><path d="M21.875 18.75H8.125a.625.625 0 000 1.25h13.75a.625.625 0 000-1.25zM20.625 12.5H15v-1.875a.625.625 0 00-1.25 0v2.5c0 .345.28.625.625.625h6.25a.625.625 0 000-1.25zM11.875 12.5H7.886l.799-1.595a.626.626 0 00-1.119-.559l-1.25 2.5a.623.623 0 00.559.904h5a.625.625 0 000-1.25zM16.875 15h-1.25a.625.625 0 000 1.25h1.25a.625.625 0 000-1.25z" fill="#000"/></svg><svg fill="none" viewBox="0 0 30 30" id="003-house-love" xmlns="http://www.w3.org/2000/svg"><g clip-path="url(#cclip0)" fill="#000"><path d="M21.875 30a.62.62 0 01-.374-.125c-.316-.235-7.751-5.837-7.751-10.336a4.54 4.54 0 018.125-2.785A4.537 4.537 0 0125.462 15 4.543 4.543 0 0130 19.539c0 4.5-7.435 10.101-7.751 10.337a.627.627 0 01-.374.124zm-3.587-13.75A3.293 3.293 0 0015 19.539c0 3.036 4.654 7.31 6.875 9.048 2.22-1.74 6.875-6.016 6.875-9.048a3.293 3.293 0 00-3.288-3.289 3.28 3.28 0 00-3.013 1.971c-.198.456-.949.456-1.147 0a3.284 3.284 0 00-3.014-1.971z"/><path d="M11.875 25H6.25a2.502 2.502 0 01-2.5-2.5v-8.75h-2.5C.549 13.75 0 13.201 0 12.5c0-.351.152-.699.407-.928L12.7.168a.625.625 0 01.85 0L17.5 3.83V1.875c0-.345.28-.625.625-.625h3.75c.345 0 .625.28.625.625v6.59l3.35 3.114a.626.626 0 01-.851.915l-3.55-3.3a.621.621 0 01-.199-.457V2.5h-2.5v2.763a.624.624 0 01-1.05.457l-4.575-4.242L1.25 12.494l3.125.005c.345 0 .625.28.625.625V22.5c0 .69.561 1.25 1.25 1.25h5.625a.625.625 0 010 1.25z"/></g><defs><clipPath id="cclip0"><path fill="#fff" d="M0 0h30v30H0z"/></clipPath></defs></svg><svg viewBox="0 0 443.52 443.52" id="arr--left" xmlns="http://www.w3.org/2000/svg"><path d="M143.492 221.863L336.226 29.129c6.663-6.664 6.663-17.468 0-24.132-6.665-6.662-17.468-6.662-24.132 0l-204.8 204.8c-6.662 6.664-6.662 17.468 0 24.132l204.8 204.8c6.78 6.548 17.584 6.36 24.132-.42 6.387-6.614 6.387-17.099 0-23.712L143.492 221.863z"/></svg><svg viewBox="0 0 512.002 512.002" id="arr--right" xmlns="http://www.w3.org/2000/svg"><path d="M388.425 241.951L151.609 5.79c-7.759-7.733-20.321-7.72-28.067.04-7.74 7.759-7.72 20.328.04 28.067l222.72 222.105-222.728 222.104c-7.759 7.74-7.779 20.301-.04 28.061a19.8 19.8 0 0014.057 5.835 19.79 19.79 0 0014.017-5.795l236.817-236.155c3.737-3.718 5.834-8.778 5.834-14.05s-2.103-10.326-5.834-14.051z"/></svg><svg viewBox="0 0 64 64" id="calculator" xmlns="http://www.w3.org/2000/svg"><path d="M49 62H15a7.008 7.008 0 01-7-7V9a7.008 7.008 0 017-7h34a7.008 7.008 0 017 7v46a7.008 7.008 0 01-7 7zM15 4a5.006 5.006 0 00-5 5v46a5.006 5.006 0 005 5h34a5.006 5.006 0 005-5V9a5.006 5.006 0 00-5-5z"/><path d="M35 58h-6a3 3 0 01-3-3v-4a3 3 0 013-3h6a3 3 0 013 3v4a3 3 0 01-3 3zm-6-8a1 1 0 00-1 1v4a1 1 0 001 1h6a1 1 0 001-1v-4a1 1 0 00-1-1zM21 58h-6a3 3 0 01-3-3v-4a3 3 0 013-3h6a3 3 0 013 3v4a3 3 0 01-3 3zm-6-8a1 1 0 00-1 1v4a1 1 0 001 1h6a1 1 0 001-1v-4a1 1 0 00-1-1zM49 58h-6a3 3 0 01-3-3V39a3 3 0 013-3h6a3 3 0 013 3v16a3 3 0 01-3 3zm-6-20a1 1 0 00-1 1v16a1 1 0 001 1h6a1 1 0 001-1V39a1 1 0 00-1-1zM35 46h-6a3 3 0 01-3-3v-4a3 3 0 013-3h6a3 3 0 013 3v4a3 3 0 01-3 3zm-6-8a1 1 0 00-1 1v4a1 1 0 001 1h6a1 1 0 001-1v-4a1 1 0 00-1-1zM21 46h-6a3 3 0 01-3-3v-4a3 3 0 013-3h6a3 3 0 013 3v4a3 3 0 01-3 3zm-6-8a1 1 0 00-1 1v4a1 1 0 001 1h6a1 1 0 001-1v-4a1 1 0 00-1-1zM35 34h-6a3 3 0 01-3-3v-4a3 3 0 013-3h6a3 3 0 013 3v4a3 3 0 01-3 3zm-6-8a1 1 0 00-1 1v4a1 1 0 001 1h6a1 1 0 001-1v-4a1 1 0 00-1-1zM21 34h-6a3 3 0 01-3-3v-4a3 3 0 013-3h6a3 3 0 013 3v4a3 3 0 01-3 3zm-6-8a1 1 0 00-1 1v4a1 1 0 001 1h6a1 1 0 001-1v-4a1 1 0 00-1-1zM49 34h-6a3 3 0 01-3-3v-4a3 3 0 013-3h6a3 3 0 013 3v4a3 3 0 01-3 3zm-6-8a1 1 0 00-1 1v4a1 1 0 001 1h6a1 1 0 001-1v-4a1 1 0 00-1-1zM49 20H15a3 3 0 01-3-3V9a3 3 0 013-3h34a3 3 0 013 3v8a3 3 0 01-3 3zM15 8a1 1 0 00-1 1v8a1 1 0 001 1h34a1 1 0 001-1V9a1 1 0 00-1-1z"/><path d="M46 17a3 3 0 01-3-3v-2a3 3 0 016 0v2a3 3 0 01-3 3zm0-6a1 1 0 00-1 1v2a1 1 0 002 0v-2a1 1 0 00-1-1z"/></svg><svg viewBox="0 0 384 384" id="call" xmlns="http://www.w3.org/2000/svg"><path d="M353.188 252.052c-23.51 0-46.594-3.677-68.469-10.906-10.719-3.656-23.896-.302-30.438 6.417l-43.177 32.594c-50.073-26.729-80.917-57.563-107.281-107.26l31.635-42.052c8.219-8.208 11.167-20.198 7.635-31.448-7.26-21.99-10.948-45.063-10.948-68.583C132.146 13.823 118.323 0 101.333 0h-70.52C13.823 0 0 13.823 0 30.813 0 225.563 158.438 384 353.188 384c16.99 0 30.813-13.823 30.813-30.813v-70.323c-.001-16.989-13.824-30.812-30.813-30.812z"/></svg><svg fill="none" viewBox="0 0 15 15" id="like" xmlns="http://www.w3.org/2000/svg"><path d="M13.81 2.126a4.033 4.033 0 00-3-1.306c-.866 0-1.66.274-2.357.814a4.822 4.822 0 00-.953.995 4.82 4.82 0 00-.953-.995A3.773 3.773 0 004.19.82a4.034 4.034 0 00-3 1.306C.423 2.96 0 4.096 0 5.328c0 1.269.473 2.43 1.488 3.655.908 1.095 2.213 2.207 3.724 3.495.516.44 1.1.939 1.708 1.47a.88.88 0 001.16 0c.607-.531 1.192-1.03 1.708-1.47 1.511-1.288 2.816-2.4 3.724-3.495C14.527 7.758 15 6.597 15 5.328c0-1.232-.423-2.37-1.19-3.202z" fill="#C4C4C4"/></svg><svg fill="none" viewBox="0 0 27 27" id="logo" xmlns="http://www.w3.org/2000/svg"><path d="M26.995 6.659a.844.844 0 00-.482-.673L13.857.079a.844.844 0 00-.714 0L.487 5.986A.844.844 0 000 6.75v14.344c0 .345.21.655.53.783l12.657 5.063a.842.842 0 00.626 0l12.657-5.063a.843.843 0 00.53-.783V6.75l-.005-.091zM13.5 1.775l10.533 4.916-4.056 1.622L9.246 3.76 13.5 1.775zM7.188 4.721l10.565 4.482-4.253 1.701L2.967 6.691l4.221-1.97zm-5.5 3.275l10.968 4.388V24.91L1.687 20.523V7.996zM14.344 24.91V12.384l10.969-4.388v12.527l-10.97 4.387z" fill="#0A143A"/></svg><svg viewBox="0 0 512 512" id="map-mark--black" xmlns="http://www.w3.org/2000/svg"><path d="M256 0C161.896 0 85.333 76.563 85.333 170.667c0 28.25 7.063 56.26 20.49 81.104L246.667 506.5c1.875 3.396 5.448 5.5 9.333 5.5s7.458-2.104 9.333-5.5l140.896-254.813c13.375-24.76 20.438-52.771 20.438-81.021C426.667 76.563 350.104 0 256 0zm0 256c-47.052 0-85.333-38.281-85.333-85.333S208.948 85.334 256 85.334s85.333 38.281 85.333 85.333S303.052 256 256 256z"/></svg><svg viewBox="0 0 512 512" id="map-mark--orange" xmlns="http://www.w3.org/2000/svg"><path d="M256 0C156.698 0 76 80.7 76 180c0 33.6 9.302 66.301 27.001 94.501l140.797 230.414c2.402 3.9 6.002 6.301 10.203 6.901 5.698.899 12.001-1.5 15.3-7.2l141.2-232.516C427.299 244.501 436 212.401 436 180 436 80.7 355.302 0 256 0zm0 270c-50.398 0-90-40.8-90-90 0-49.501 40.499-90 90-90s90 40.499 90 90c0 48.9-39.001 90-90 90z" fill="#fd003a"/><path d="M256 0v90c49.501 0 90 40.499 90 90 0 48.9-39.001 90-90 90v241.991c5.119.119 10.383-2.335 13.3-7.375L410.5 272.1c16.799-27.599 25.5-59.699 25.5-92.1C436 80.7 355.302 0 256 0z" fill="#e50027"/></svg><svg viewBox="0 0 122.88 122.88" id="phone--circle" xmlns="http://www.w3.org/2000/svg"><path d="M61.44 0c16.97 0 32.33 6.88 43.44 18 11.12 11.12 18 26.48 18 43.44 0 16.96-6.88 32.33-18 43.44-11.12 11.12-26.48 18-43.44 18-16.97 0-32.33-6.88-43.44-18C6.88 93.77 0 78.41 0 61.44S6.88 29.11 18 18C29.11 6.88 44.47 0 61.44 0zM48.1 56.19c2 3.6 4.3 7.06 7.29 10.21 2.99 3.17 6.72 6.06 11.55 8.52.35.18.7.18 1 .05.46-.18.92-.55 1.39-1.01.35-.35.8-.93 1.27-1.55 1.85-2.44 4.15-5.47 7.39-3.96.07.03.13.07.2.11L89 74.78c.03.02.07.05.11.07 1.43.98 2.02 2.49 2.03 4.2 0 1.75-.64 3.71-1.58 5.36-1.25 2.19-3.08 3.63-5.2 4.6-2.01.92-4.26 1.42-6.41 1.74-3.38.5-6.55.18-9.8-.82-3.17-.98-6.37-2.61-9.85-4.76l-.25-.16c-1.6-1-3.33-2.07-5.03-3.33-6.21-4.68-12.54-11.45-16.65-18.9-3.46-6.26-5.34-13.01-4.32-19.44.57-3.53 2.09-6.74 4.72-8.85 2.3-1.85 5.4-2.87 9.41-2.51.46.03.87.3 1.09.7l6.94 11.72c1.01 1.32 1.14 2.62.59 3.92-.46 1.07-1.39 2.05-2.66 2.98-.37.32-.82.64-1.29.98-1.55 1.12-3.32 2.42-2.71 3.96l-.04-.05zm50.2-31.61C88.87 15.15 75.83 9.31 61.44 9.31s-27.43 5.83-36.86 15.27C15.15 34.01 9.31 47.05 9.31 61.44s5.83 27.43 15.27 36.86 22.46 15.27 36.86 15.27c14.39 0 27.43-5.83 36.86-15.27 9.43-9.43 15.27-22.46 15.27-36.86 0-14.39-5.84-27.43-15.27-36.86z"/></svg><svg fill="none" viewBox="0 0 15 15" id="search" xmlns="http://www.w3.org/2000/svg"><g clip-path="url(#mclip0)"><path d="M14.65 14.001l-4.564-4.564a5.707 5.707 0 001.385-3.726A5.742 5.742 0 005.735-.025a5.706 5.706 0 00-4.057 1.68A5.698 5.698 0 000 5.71a5.742 5.742 0 005.735 5.735 5.71 5.71 0 003.727-1.384l4.565 4.564.624-.625zm-8.915-3.438A4.859 4.859 0 01.882 5.711c0-1.297.504-2.516 1.42-3.432A4.82 4.82 0 015.736.858a4.859 4.859 0 014.853 4.853 4.86 4.86 0 01-4.853 4.852z" fill="#fff"/></g><defs><clipPath id="mclip0"><path fill="#fff" d="M0 0h15v15H0z"/></clipPath></defs></svg><svg fill="none" viewBox="0 0 15 15" id="search2" xmlns="http://www.w3.org/2000/svg"><path d="M14.65 14.001l-4.564-4.564a5.707 5.707 0 001.385-3.726A5.742 5.742 0 005.735-.025a5.706 5.706 0 00-4.057 1.68A5.698 5.698 0 000 5.71a5.742 5.742 0 005.735 5.735 5.71 5.71 0 003.727-1.384l4.565 4.564.624-.625zm-8.915-3.438A4.859 4.859 0 01.882 5.711c0-1.297.504-2.516 1.42-3.432A4.82 4.82 0 015.736.858a4.859 4.859 0 014.853 4.853 4.86 4.86 0 01-4.853 4.852z" fill="#fff"/></svg><svg fill="none" viewBox="0 0 15 15" id="search2_copy" xmlns="http://www.w3.org/2000/svg"><path d="M14.65 14.001l-4.564-4.564a5.707 5.707 0 001.385-3.726A5.742 5.742 0 005.735-.025a5.706 5.706 0 00-4.057 1.68A5.698 5.698 0 000 5.71a5.742 5.742 0 005.735 5.735 5.71 5.71 0 003.727-1.384l4.565 4.564.624-.625zm-8.915-3.438A4.859 4.859 0 01.882 5.711c0-1.297.504-2.516 1.42-3.432A4.82 4.82 0 015.736.858a4.859 4.859 0 014.853 4.853 4.86 4.86 0 01-4.853 4.852z" fill="#fff"/></svg><svg viewBox="0 0 24 24" id="telegram" xmlns="http://www.w3.org/2000/svg"><path d="M9.417 15.181l-.397 5.584c.568 0 .814-.244 1.109-.537l2.663-2.545 5.518 4.041c1.012.564 1.725.267 1.998-.931L23.93 3.821l.001-.001c.321-1.496-.541-2.081-1.527-1.714l-21.29 8.151c-1.453.564-1.431 1.374-.247 1.741l5.443 1.693L18.953 5.78c.595-.394 1.136-.176.691.218z"/></svg><svg viewBox="0 0 24 24" id="telegram--color" xmlns="http://www.w3.org/2000/svg"><path d="M9.417 15.181l-.397 5.584c.568 0 .814-.244 1.109-.537l2.663-2.545 5.518 4.041c1.012.564 1.725.267 1.998-.931L23.93 3.821l.001-.001c.321-1.496-.541-2.081-1.527-1.714l-21.29 8.151c-1.453.564-1.431 1.374-.247 1.741l5.443 1.693L18.953 5.78c.595-.394 1.136-.176.691.218z" fill="#039be5"/></svg><svg viewBox="0 0 512.002 512.002" id="viber--color" xmlns="http://www.w3.org/2000/svg"><g fill="#7f40bd"><path d="M437.976 214.854c.615-72.186-60.866-138.361-137.051-147.512-1.515-.18-3.166-.453-4.913-.743-3.772-.625-7.672-1.267-11.607-1.267-15.614 0-19.788 10.968-20.887 17.51-1.069 6.36-.049 11.701 3.024 15.882 5.171 7.031 14.269 8.279 21.577 9.28 2.142.296 4.163.571 5.855.951 68.449 15.295 91.497 39.341 102.761 107.208.275 1.658.399 3.702.531 5.869.491 8.113 1.515 24.991 19.661 24.991h.002c1.511 0 3.134-.13 4.824-.388 16.898-2.568 16.368-17.996 16.114-25.409-.072-2.088-.14-4.063.037-5.376a7.57 7.57 0 00.072-.996z"/><path d="M279.974 40.846c2.027.146 3.947.286 5.545.531 112.4 17.286 164.091 70.54 178.416 183.819.243 1.926.281 4.274.321 6.761.143 8.85.437 27.262 20.21 27.643l.614.006c6.201 0 11.134-1.87 14.662-5.562 6.155-6.438 5.726-16.002 5.379-23.689-.084-1.886-.165-3.662-.145-5.217C506.405 109.283 406.12 4.226 290.369.32c-.48-.016-.938.01-1.401.075-.227.033-.649.075-1.371.075-1.154 0-2.574-.1-4.08-.202C281.696.143 279.632 0 277.54 0c-18.434 0-21.938 13.102-22.386 20.912-1.034 18.051 16.428 19.321 24.82 19.934zM458.511 371.602c-2.39-1.825-4.861-3.714-7.174-5.578-12.272-9.876-25.328-18.979-37.955-27.783a2807.15 2807.15 0 01-7.852-5.484c-16.174-11.361-30.715-16.882-44.453-16.882-18.504 0-34.636 10.224-47.951 30.384-5.899 8.938-13.056 13.283-21.876 13.283-5.215 0-11.142-1.488-17.612-4.425-52.207-23.674-89.486-59.972-110.803-107.886-10.305-23.158-6.964-38.295 11.172-50.615 10.299-6.99 29.469-20.003 28.111-44.922-1.538-28.298-63.976-113.445-90.284-123.115-11.138-4.096-22.841-4.134-34.846-.095-30.244 10.167-51.947 28.022-62.769 51.631-10.458 22.813-9.986 49.599 1.366 77.463C48.401 238.14 94.538 308.38 152.72 366.342c56.95 56.74 126.946 103.217 208.042 138.137 7.31 3.145 14.977 4.861 20.575 6.112 1.908.429 3.555.795 4.756 1.124.66.18 1.34.277 2.023.283l.641.003h.003c38.142 0 83.941-34.854 98.007-74.59 12.323-34.793-10.177-51.991-28.256-65.809zM296.845 132.872c-6.53.165-20.121.502-24.889 14.344-2.231 6.468-1.964 12.084.795 16.692 4.048 6.761 11.805 8.833 18.86 9.97 25.586 4.106 38.726 18.254 41.354 44.522 1.221 12.248 9.469 20.801 20.059 20.801h.002c.782 0 1.582-.046 2.379-.143 12.736-1.515 18.911-10.873 18.353-27.81.204-17.677-9.047-37.745-24.781-53.73-15.79-16.034-34.821-25.064-52.132-24.646z"/></g></svg><svg viewBox="0 0 322 322" id="viber2" xmlns="http://www.w3.org/2000/svg"><path d="M275.445 135.123c.387-45.398-38.279-87.016-86.192-92.771-.953-.113-1.991-.285-3.09-.467-2.372-.393-4.825-.797-7.3-.797-9.82 0-12.445 6.898-13.136 11.012-.672 4-.031 7.359 1.902 9.988 3.252 4.422 8.974 5.207 13.57 5.836 1.347.186 2.618.359 3.682.598 43.048 9.619 57.543 24.742 64.627 67.424.173 1.043.251 2.328.334 3.691.309 5.102.953 15.717 12.365 15.717h.001c.95 0 1.971-.082 3.034-.244 10.627-1.615 10.294-11.318 10.134-15.98-.045-1.313-.088-2.555.023-3.381.03-.208.045-.417.046-.626z"/><path d="M176.077 25.688c1.275.092 2.482.18 3.487.334 70.689 10.871 103.198 44.363 112.207 115.605.153 1.211.177 2.688.202 4.252.09 5.566.275 17.145 12.71 17.385l.386.004c3.9 0 7.002-1.176 9.221-3.498 3.871-4.049 3.601-10.064 3.383-14.898-.053-1.186-.104-2.303-.091-3.281.899-72.862-62.171-138.933-134.968-141.39-.302-.01-.59.006-.881.047a6.09 6.09 0 01-.862.047c-.726 0-1.619-.063-2.566-.127C177.16.09 175.862 0 174.546 0c-11.593 0-13.797 8.24-14.079 13.152-.65 11.352 10.332 12.151 15.61 12.536zM288.36 233.703a224.924 224.924 0 01-4.512-3.508c-7.718-6.211-15.929-11.936-23.87-17.473a1800.92 1800.92 0 01-4.938-3.449c-10.172-7.145-19.317-10.617-27.957-10.617-11.637 0-21.783 6.43-30.157 19.109-3.71 5.621-8.211 8.354-13.758 8.354-3.28 0-7.007-.936-11.076-2.783-32.833-14.889-56.278-37.717-69.685-67.85-6.481-14.564-4.38-24.084 7.026-31.832 6.477-4.396 18.533-12.58 17.679-28.252-.967-17.797-40.235-71.346-56.78-77.428-7.005-2.576-14.365-2.6-21.915-.06-19.02 6.394-32.669 17.623-39.475 32.471-6.577 14.347-6.28 31.193.859 48.717 20.638 50.666 49.654 94.84 86.245 131.293 35.816 35.684 79.837 64.914 130.839 86.875 4.597 1.978 9.419 3.057 12.94 3.844 1.2.27 2.236.5 2.991.707.415.113.843.174 1.272.178l.403.002h.002c23.988 0 52.791-21.92 61.637-46.91 7.75-21.882-6.4-32.698-17.77-41.388zM186.687 83.564c-4.107.104-12.654.316-15.653 9.021-1.403 4.068-1.235 7.6.5 10.498 2.546 4.252 7.424 5.555 11.861 6.27 16.091 2.582 24.355 11.48 26.008 28 .768 7.703 5.955 13.082 12.615 13.082h.001c.492 0 .995-.029 1.496-.09 8.01-.953 11.893-6.838 11.542-17.49.128-11.117-5.69-23.738-15.585-33.791-9.929-10.084-21.898-15.763-32.785-15.5z"/></svg><svg viewBox="0 0 512 512" id="whatsapp--circle" xmlns="http://www.w3.org/2000/svg"><path d="M256 0C114.637 0 0 114.637 0 256s114.637 256 256 256 256-114.637 256-256S397.363 0 256 0zm5.426 405.05c-.004 0 .004 0 0 0h-.063c-25.644-.01-50.843-6.44-73.222-18.644l-81.223 21.301 21.738-79.375c-13.41-23.227-20.465-49.578-20.453-76.574.035-84.453 68.77-153.16 153.223-153.16 40.984.015 79.457 15.968 108.383 44.918 28.93 28.953 44.851 67.437 44.836 108.363-.036 84.457-68.778 153.172-153.22 153.172zm0 0"/><path d="M261.477 124.469c-70.247 0-127.375 57.105-127.407 127.3-.007 24.055 6.727 47.481 19.473 67.75l3.027 4.817-12.867 46.98 48.2-12.64 4.652 2.758c19.55 11.601 41.965 17.738 64.816 17.746h.05c70.192 0 127.321-57.11 127.352-127.309.012-34.02-13.222-66.004-37.265-90.066-24.043-24.063-56.02-37.325-90.031-37.336zm74.906 182.035c-3.192 8.937-18.485 17.098-25.84 18.2-6.598.983-14.941 1.394-24.113-1.517-5.563-1.765-12.692-4.12-21.828-8.062-38.403-16.578-63.485-55.234-65.399-57.79-1.914-2.554-15.633-20.753-15.633-39.593 0-18.836 9.89-28.097 13.399-31.926 3.511-3.832 7.66-4.789 10.21-4.789 2.551 0 5.106.024 7.337.133 2.351.117 5.507-.894 8.613 6.57 3.191 7.665 10.848 26.5 11.805 28.415.957 1.917 1.593 4.152.32 6.707-1.277 2.554-5.52 8.066-9.57 13.09-1.7 2.105-3.914 3.98-1.68 7.812 2.23 3.828 9.918 16.363 21.297 26.512 14.625 13.039 26.96 17.078 30.789 18.996 3.824 1.914 6.058 1.593 8.293-.957 2.23-2.555 9.57-11.176 12.12-15.008 2.552-3.832 5.106-3.192 8.614-1.914 3.512 1.273 22.332 10.535 26.16 12.449 3.828 1.918 6.38 2.875 7.336 4.473.961 1.597.961 9.258-2.23 18.199zm0 0"/></svg><svg viewBox="0 0 512 512" id="whatsapp--msg" xmlns="http://www.w3.org/2000/svg"><path d="M256.064 0h-.128C114.784 0 0 114.816 0 256c0 56 18.048 107.904 48.736 150.048l-31.904 95.104 98.4-31.456C155.712 496.512 204 512 256.064 512 397.216 512 512 397.152 512 256S397.216 0 256.064 0zm148.96 361.504c-6.176 17.44-30.688 31.904-50.24 36.128-13.376 2.848-30.848 5.12-89.664-19.264-75.232-31.168-123.68-107.616-127.456-112.576-3.616-4.96-30.4-40.48-30.4-77.216s18.656-54.624 26.176-62.304c6.176-6.304 16.384-9.184 26.176-9.184 3.168 0 6.016.16 8.576.288 7.52.32 11.296.768 16.256 12.64 6.176 14.88 21.216 51.616 23.008 55.392 1.824 3.776 3.648 8.896 1.088 13.856-2.4 5.12-4.512 7.392-8.288 11.744-3.776 4.352-7.36 7.68-11.136 12.352-3.456 4.064-7.36 8.416-3.008 15.936 4.352 7.36 19.392 31.904 41.536 51.616 28.576 25.44 51.744 33.568 60.032 37.024 6.176 2.56 13.536 1.952 18.048-2.848 5.728-6.176 12.8-16.416 20-26.496 5.12-7.232 11.584-8.128 18.368-5.568 6.912 2.4 43.488 20.48 51.008 24.224 7.52 3.776 12.48 5.568 14.304 8.736 1.792 3.168 1.792 18.048-4.384 35.52z"/></svg><svg viewBox="0 0 24 24" id="whatsapp--msg-alpha" xmlns="http://www.w3.org/2000/svg"><path d="M17.507 14.307l-.009.075c-2.199-1.096-2.429-1.242-2.713-.816-.197.295-.771.964-.944 1.162-.175.195-.349.21-.646.075-.3-.15-1.263-.465-2.403-1.485-.888-.795-1.484-1.77-1.66-2.07-.293-.506.32-.578.878-1.634.1-.21.049-.375-.025-.524-.075-.15-.672-1.62-.922-2.206-.24-.584-.487-.51-.672-.51-.576-.05-.997-.042-1.368.344-1.614 1.774-1.207 3.604.174 5.55 2.714 3.552 4.16 4.206 6.804 5.114.714.227 1.365.195 1.88.121.574-.091 1.767-.721 2.016-1.426.255-.705.255-1.29.18-1.425-.074-.135-.27-.21-.57-.345z"/><path d="M20.52 3.449C12.831-3.984.106 1.407.101 11.893c0 2.096.549 4.14 1.595 5.945L0 24l6.335-1.652c7.905 4.27 17.661-1.4 17.665-10.449 0-3.176-1.24-6.165-3.495-8.411zm1.482 8.417c-.006 7.633-8.385 12.4-15.012 8.504l-.36-.214-3.75.975 1.005-3.645-.239-.375c-4.124-6.565.614-15.145 8.426-15.145a9.865 9.865 0 017.021 2.91 9.788 9.788 0 012.909 6.99z"/></svg></svg>