<svg width="16" height="16" fill="none" xmlns="http://www.w3.org/2000/svg"><path d="M15.647 6.8c-.567-.446-1.624-.066-2.448.85-.77-.215-1.453-.162-2.036.166-1.115.629-1.537 2.075-1.694 3.174l-.07.515c-.25 1.903-.487 3.701-2.743 3.701l-.112-.001c-.64-.016-1.1-.215-1.408-.608-.566-.727-.469-1.914-.397-2.407a.66.66 0 00.39-.582l.034-.975 1.196-.355a.658.658 0 00.347-.256c.214.048.481.037.67-.081.331-.207.815-.603 1.416-1.354.658-.82.82-1.481.835-1.91.008-.306-.204-.616-.363-.703-.158-.086-.187.076-.157.38.045.457-.027 1.153-.617 1.91-.011.013-.021.022-.03.035l.004-.033c.141-.218.263-.447.355-.692.96-2.542-1.115-5.508-1.204-5.633-.02-.027-.045-.045-.07-.066.058-.136.044-.259-.055-.323-.155-.1-.399-.403-.54-.675L6.702.4c-.14-.27-.434-.318-.654-.107l-.62.601c-.222.212-.179.498.092.64l.436.224c.27.143.567.399.663.573.072.13.238.149.41.061.175.256 1.884 2.85 1.1 4.925-.032.085-.081.163-.123.245L8 7.563c-.048-.011-.094-.029-.144-.029a.625.625 0 00-.334.098l.145.14a.608.608 0 00-.147.386c0 .037.008.072.015.108-.276.3-.62.57-1.036.798a.665.665 0 00-.52-.06l-1.456.433-1.558-.493a.66.66 0 00-.515.051c-.743-.44-1.248-1.001-1.506-1.678-.82-2.175 1.098-4.92 1.117-4.947.002-.005.002-.01.006-.015 0 0 .045.043.101.093.056.053.178-.046.274-.22.094-.177.393-.433.664-.574l.435-.225c.272-.141.314-.427.093-.64l-.621-.6c-.22-.213-.512-.165-.654.107L2.11.773c-.143.272-.384.573-.54.675-.158.1-.227.235-.158.3l.126.118a.329.329 0 00-.081.075c-.09.125-2.165 3.091-1.205 5.633.323.852.944 1.544 1.853 2.072a.66.66 0 00.457.565l1.272.402-.033.949a.68.68 0 00.208.504c-.088.587-.205 2.023.542 2.982.447.573 1.11.873 1.975.894.046.003.09.003.136.003 2.897 0 3.214-2.404 3.468-4.342.023-.17.045-.34.07-.507.188-1.323.658-2.26 1.326-2.635.334-.19.736-.243 1.193-.163-.574.948-.646 1.939-.123 2.355.606.48 1.78.006 2.622-1.058.842-1.064 1.032-2.315.428-2.795zM8.354 8.426c-.05.059-.1.123-.147.177.048-.06.096-.121.14-.184l.007.007zm5.784.29c-.315.4-.755.577-.983.396-.166-.131-.17-.418-.04-.718.12.038.242.08.367.132a.37.37 0 10.288-.68c-.056-.024-.109-.041-.165-.06.258-.19.528-.247.69-.117.228.18.156.65-.157 1.046z" fill="#000"/></svg>