<svg width="16" height="16" fill="none" xmlns="http://www.w3.org/2000/svg"><g clip-path="url(#clip0_609_1454)"><path d="M5.211 4.462c.108.22.223.412.268.64a3.47 3.47 0 00.84 1.679c.272.299.256.606.163.915-.08.267-.056.462.121.667.237.275.474.549.802.723.38.204.91.168 1.34-.166.35-.274.612-.624.855-.992.043-.064.026-.12.013-.18l-.046-.225c-.066-.302.024-.542.23-.78a3.592 3.592 0 00.816-1.647c.046-.224.165-.41.29-.608-.004.077 0 .155-.012.232-.118.79-.028 1.571.112 2.346.06.318.164.632.292.934.075.176.254.173.392.229.497.198.98.422 1.438.704.414.254.624.641.771 1.078.23.682.432 1.371.57 2.08.15.778.21 1.559.165 2.349-.021.346-.239.552-.528.66a14.06 14.06 0 01-2.114.606c-.424.086-.85.152-1.272.233-.32.063-.634.054-.952.056-.838.007-1.678-.011-2.517.007a11.666 11.666 0 01-2.392-.218 18.23 18.23 0 01-2.411-.595 8.796 8.796 0 01-.658-.248c-.334-.141-.387-.442-.41-.743-.038-.469.047-.933.097-1.395.067-.622.174-1.24.328-1.848.144-.571.318-1.134.632-1.635.251-.402.657-.622 1.094-.782.363-.132.728-.258 1.091-.39a.29.29 0 00.181-.18 6.29 6.29 0 00.397-1.731c.048-.519.07-1.032-.006-1.55-.008-.065-.023-.135.02-.225zm2.35 9.252c0 .147.007.268 0 .39-.009.122.03.174.16.168.191-.008.383-.008.575 0 .131.006.165-.051.162-.17-.007-.23.005-.46-.005-.69-.005-.139.035-.198.184-.191.23.01.46-.004.691.005.127.004.173-.047.171-.169-.003-.191-.008-.383.002-.574.008-.136-.058-.162-.173-.16-.217.005-.435.002-.653.005-.158.003-.233-.058-.224-.229.013-.222.002-.448.007-.672.001-.105-.034-.149-.146-.146a9.836 9.836 0 01-.595 0c-.112-.001-.162.036-.158.156.006.23-.007.46.004.69.007.148-.06.194-.192.194-.166 0-.332.002-.499.004-.357.005-.357.006-.355.37.002.529.002.526.528.53.165.002.374-.072.48.036.109.104.02.315.037.453zM5.886 3.736c-.218 0-.435-.005-.653.002-.145.004-.205-.05-.21-.2-.012-.372-.038-.746.013-1.112C5.16 1.554 5.62.578 6.768.227 7.285.07 7.805-.05 8.338.02c1.001.128 1.883.5 2.373 1.456.315.613.313 1.293.286 1.967-.002.06.008.123-.107.1-.09-.017-.104.1-.119.167-.022.105-.052.121-.153.069-.437-.23-.723-.586-.9-1.036-.047-.123-.068-.145-.191-.059-.799.557-1.687.869-2.652.997a6.7 6.7 0 01-.99.056z" fill="#000"/></g><defs><clipPath id="clip0_609_1454"><path fill="#fff" d="M0 0h16v16H0z"/></clipPath></defs></svg>