<svg width="16" height="16" fill="none" xmlns="http://www.w3.org/2000/svg"><path d="M14.268 15.288c-.064-.613-.08-1.23-.14-1.845-.092-.92-.223-1.835-.495-2.723-.147-.475-.371-.888-.817-1.15-.428-.252-.893-.4-1.36-.546-.164-.051-.135.064-.125.147.043.402.006.799-.077 1.19-.027.127.016.185.125.247.46.258.723.651.752 1.184.029.549-.083 1.088-.117 1.632-.022.37-.062.74-.218 1.085-.187.416-.51.58-.952.496-.168-.032-.278-.109-.25-.295.026-.182.153-.246.32-.212.212.041.335-.058.422-.23.059-.12.09-.252.104-.385.062-.612.13-1.225.179-1.84.045-.555-.253-.976-.746-1.088-.509-.115-.947.115-1.157.634-.168.414-.305.841-.465 1.26-.091.237-.17.476-.218.724-.062.322.002.44.3.574.142.064.21.165.161.317-.05.154-.162.197-.315.168-.439-.083-.693-.395-.685-.845a1.99 1.99 0 01.082-.537c.188-.653.436-1.285.69-1.915.226-.567.68-.879 1.295-.922.12-.01.171-.043.194-.16.075-.389.086-.778.051-1.171-.016-.186-.088-.287-.282-.317a2.035 2.035 0 01-.46-.138c-.148-.059-.212-.041-.263.125a9.872 9.872 0 01-.726 1.742c-.141.27-.304.53-.485.844-.072-.397-.126-.735-.197-1.07a.649.649 0 01.037-.43c.037-.081.134-.177.037-.265-.155-.14-.325-.264-.49-.394-.005-.005-.027.007-.037.015-.16.137-.342.256-.467.419-.075.097.07.225.103.344.006.027.02.056.017.082-.067.412-.137.824-.213 1.275-.052-.063-.076-.087-.092-.114A10.666 10.666 0 016.26 9.043c-.052-.155-.048-.395-.18-.445-.125-.046-.312.077-.472.122-.084.024-.157.046-.19.144-.06.189-.146.368-.191.557-.295 1.229-.221 2.445.158 3.646.058.183.127.282.335.322.401.08.617.52.48.9a.7.7 0 01-.956.418c-.38-.173-.544-.641-.323-.99.08-.127.07-.224.027-.349a7.347 7.347 0 01-.328-3.582c.044-.282.138-.55.202-.848-.558.163-1.094.299-1.578.58-.355.207-.63.477-.785.87-.186.473-.298.963-.392 1.459-.218 1.152-.285 2.321-.373 3.488-.024.318.118.515.371.663h11.823c.3-.142.416-.37.38-.71zm-8.94-9.84c.108.029.16.082.201.18.245.586.547 1.137.997 1.594.355.364.766.636 1.288.688.656.068 1.168-.225 1.611-.668.451-.453.765-.997 1.01-1.586.033-.08.045-.18.166-.192.437-.042.778-.733.706-1.154-.021-.12-.066-.23-.197-.238-.163-.011-.133-.098-.109-.198a5.99 5.99 0 00.141-1.048 2.963 2.963 0 00-.083-.845c-.098-.387-.298-.72-.661-.906-.214-.11-.38-.232-.451-.47C9.92.512 9.828.45 9.753.389c-.278-.23-.608-.331-.95-.365-1.026-.1-1.983.118-2.829.715-.584.41-.986.95-1.067 1.687a4.8 4.8 0 00.064 1.443c.019.102.06.21-.12.206-.082-.001-.135.067-.162.147-.15.43.197 1.11.639 1.226z" fill="#000"/></svg>