<svg width="52" height="70" fill="none" xmlns="http://www.w3.org/2000/svg"><path d="M47.955 7.99a1 1 0 00-.366-1.367l-4.437-2.561a1 1 0 00-1.366.366L38.724 9.73l-1.19-.688a1 1 0 00-1.366.366l-3.062 5.303-3.246-1.874a1 1 0 00-1.366.366l-6.717 11.634a1 1 0 00.366 1.366l.324.187a1 1 0 001.366-.366l6.03-10.444 2.056 1.188-21.395 37.057a1 1 0 00-.134.495l-.04 9.04a1 1 0 01-.134.497l-.99 1.714a1 1 0 00.366 1.366l.324.188a1 1 0 001.366-.367l.99-1.714a1 1 0 01.362-.364l7.81-4.555a1 1 0 00.362-.364L46.45 15.346a1 1 0 00-.366-1.367l-1.19-.687 3.061-5.303zm-4.8-1.185l2.056 1.187-2.374 4.113-2.056-1.187 2.374-4.113zm-30.423 55.07l.029-6.816 5.86 3.384-5.89 3.432zm7.23-5.4l-6.17-3.562 1.188-2.056 6.169 3.562-1.187 2.056zm2.374-4.113l-6.169-3.561 1.188-2.057 6.168 3.562-1.187 2.056zm2.375-4.112l-6.17-3.562 1.188-2.056 6.169 3.561-1.187 2.057zm2.374-4.113l-6.169-3.562 1.187-2.056 6.17 3.562-1.188 2.056zm2.374-4.113l-6.168-3.561 10.684-18.507 6.17 3.561-10.686 18.507zm11.873-20.563l-6.17-3.561 2.375-4.113 6.17 3.562-2.375 4.112zM23.168 66.342a1 1 0 011-1h25.306a1 1 0 011 1v.374a1 1 0 01-1 1H24.168a1 1 0 01-1-1v-.374zm-4.748 0a1 1 0 011-1h.374a1 1 0 011 1v.374a1 1 0 01-1 1h-.374a1 1 0 01-1-1v-.374z" fill="#00AA8A"/></svg>