<svg width="45" height="63" fill="none" xmlns="http://www.w3.org/2000/svg"><g clip-path="url(#clip0_579_3395)" fill="#E31E24"><path d="M36.163 35.174c.335-.918.533-1.823.533-2.666 0-4.688-3.646-8.508-8.123-8.508-2.344 0-4.564 1.079-6.101 2.89C20.946 25.079 18.714 24 16.37 24c-4.477 0-8.123 3.82-8.123 8.508 0 .843.198 1.748.546 2.678h-3.56v2.022h4.54c3.435 6.325 12.699 13.48 12.699 13.48s9.388-7.18 12.748-13.48h4.564v-2.034h-3.621zM22.472 48.096c-2.754-2.27-7.677-6.796-10.343-10.888h2.505l2.914-4.167 4.34 8.024 3.3-4.068 2.12 3.919 3.708-3.708h1.836c-2.654 4.13-7.602 8.644-10.38 10.888zM33.98 35.174h-3.795l-2.38 2.38-2.27-4.203-3.299 4.068-4.465-8.235-4.191 5.99h-2.592c-.447-.955-.707-1.873-.707-2.679 0-3.572 2.74-6.473 6.101-6.473 2.146 0 4.093 1.165 5.21 3.137l.88 1.55.88-1.55c1.116-1.96 3.063-3.137 5.209-3.137 3.36 0 6.101 2.901 6.101 6.473 0 .819-.26 1.724-.682 2.679z"/><path d="M39.635 8.124h-5.977l-.682-1.365a3.029 3.029 0 00-2.729-1.686H29.17A7.088 7.088 0 0022.36 0a7.084 7.084 0 00-6.808 5.085h-1.08a3.029 3.029 0 00-2.728 1.687l-.682 1.364H5.085A5.092 5.092 0 000 13.22v44.695A5.092 5.092 0 005.085 63h34.55a5.092 5.092 0 005.085-5.085V13.208a5.092 5.092 0 00-5.085-5.084zM12.29 10.232l1.277-2.555c.174-.347.521-.558.906-.558h2.74l.15-.843a5.05 5.05 0 014.997-4.23 5.061 5.061 0 014.998 4.23l.149.843h2.74c.385 0 .732.21.906.558l1.277 2.555c.186.31.037.905-.583.955H12.873a.655.655 0 01-.583-.955zm27.345 50.735H5.085a3.049 3.049 0 01-3.051-3.051V13.208a3.049 3.049 0 013.05-3.05h5.135a2.645 2.645 0 00.36 1.773 2.69 2.69 0 002.281 1.277h18.975c.942 0 1.798-.471 2.282-1.277a2.644 2.644 0 00.36-1.774h5.134a3.049 3.049 0 013.05 3.051v44.708h.025a3.049 3.049 0 01-3.05 3.05z"/></g><defs><clipPath id="clip0_579_3395"><path fill="#fff" d="M0 0h45v63H0z"/></clipPath></defs></svg>