<svg width="55" height="70" fill="none" xmlns="http://www.w3.org/2000/svg"><path d="M49.289 48.841l-7.39-2.272a2.362 2.362 0 00-1.302-2.246l-4.572-2.285v-3.26c3.42-2.378 5.827-6.116 6.428-10.424h.61c1.998 0 3.713-1.485 3.902-3.381a3.782 3.782 0 00-.953-2.91 3.766 3.766 0 00-1.22-.894V9.793c0-4.191-3.409-7.601-7.6-7.601h-.174C35.172.83 32.46 0 29.452 0c-6.405 0-9.348 1.334-12.755 2.88-1.82.825-3.702 1.678-6.37 2.458a1.025 1.025 0 00-.658 1.38c.031.075.49 1.138 1.671 2.43-.51.628-1.476 2.235-1.476 5.394v6.673c-1.18.563-2.041 1.677-2.173 2.988a3.782 3.782 0 00.954 2.91 3.772 3.772 0 002.792 1.24h.766c.6 4.31 3.008 8.049 6.428 10.427v3.258l-4.57 2.285a2.362 2.362 0 00-1.303 2.246l-7.39 2.272A7.563 7.563 0 000 56.106v12.868a1.025 1.025 0 102.05 0V56.106a5.522 5.522 0 013.92-5.305l7.688-2.363 1.357 1.809-1.542 1.542a3.213 3.213 0 00-.603 3.714l2.936 5.87H13.01v-1.166a1.025 1.025 0 10-2.051 0v1.166H6.505c-.566 0-1.025.46-1.025 1.026v6.575c0 .567.459 1.026 1.025 1.026h10.96c.566 0 1.025-.46 1.025-1.026v-2.232l1.346 2.69a1.025 1.025 0 101.834-.916l-6.965-13.93a1.166 1.166 0 01.218-1.347l2.171-2.171c.36-.361.401-.932.095-1.34l-2.323-3.098a.313.313 0 01-.055-.262.313.313 0 01.167-.21l4.039-2.02 2.85 9.775a1.025 1.025 0 001.97-.574l-.45-1.54a12.015 12.015 0 007.883 0l-3.942 13.513-2.212-7.587a1.025 1.025 0 10-1.97.574l3.198 10.962a1.026 1.026 0 001.969 0l7.328-25.123 4.038 2.02a.313.313 0 01.167.21.313.313 0 01-.055.262l-2.323 3.098c-.306.408-.266.979.095 1.34l2.17 2.17c.356.356.444.898.22 1.347l-6.966 13.93a1.025 1.025 0 101.834.918l6.965-13.93a3.213 3.213 0 00-.602-3.714l-1.542-1.542 1.357-1.81 7.688 2.364a5.522 5.522 0 013.919 5.306v12.867a1.025 1.025 0 102.05 0V56.106a7.563 7.563 0 00-5.367-7.265zm-32.85 19.108H7.53v-4.525h3.43v.07a1.025 1.025 0 102.05 0v-.07h3.43v4.525zm1.105-63.202c3.322-1.506 5.946-2.696 11.908-2.696 3.783 0 7.163 1.583 7.863 3.683a1.025 1.025 0 001.946-.649 4.852 4.852 0 00-.21-.52 5.56 5.56 0 013.691 5.228v11.03h-1.166a1.168 1.168 0 01-1.167-1.166V18.56c0-4.754-3.442-8.25-3.588-8.397a1.027 1.027 0 00-1.034-.253c-5.692 1.798-13.718 3.313-19.627.323-2.102-1.064-3.344-2.416-3.997-3.319 2.177-.715 3.864-1.48 5.38-2.168zm16.43 37.778l-1.958 6.715a9.931 9.931 0 01-4.688 1.174 9.936 9.936 0 01-4.687-1.173l-1.959-6.716v-2.544a15.18 15.18 0 006.646 1.524c2.38 0 4.636-.548 6.646-1.525v2.545zm-6.646-3.07c-7.29 0-13.222-5.932-13.222-13.223a1.025 1.025 0 10-2.05 0v.07h-.619a1.718 1.718 0 01-1.705-1.894c.086-.86.904-1.534 1.862-1.534h1.487a3.22 3.22 0 003.217-3.217v-3.87a1.025 1.025 0 10-2.05 0v3.87c0 .643-.524 1.166-1.167 1.166h-1.166v-6.281c0-2.386.64-3.572.937-3.993a14.09 14.09 0 002.221 1.432c2.324 1.21 5.09 1.882 8.22 1.993 3.67.132 7.864-.511 12.475-1.91.813.985 2.59 3.483 2.59 6.496v1.097a3.22 3.22 0 003.218 3.217h1.644a1.718 1.718 0 011.705 1.895c-.086.86-.904 1.534-1.862 1.534h-.462v-.06a1.025 1.025 0 00-2.05 0c-.007 7.284-5.938 13.211-13.223 13.211z" fill="#00AA8A"/><path d="M48.152 61.921h-1.715v-1.715a1.025 1.025 0 10-2.05 0v1.715h-1.715a1.025 1.025 0 100 2.05h1.714v1.715a1.025 1.025 0 102.051 0v-1.714h1.715a1.025 1.025 0 100-2.051z" fill="#00AA8A"/></svg>