<svg width="52" height="70" viewBox="0 0 52 70" fill="none" xmlns="http://www.w3.org/2000/svg">
<path d="M47.955 7.9893C48.2311 7.51101 48.0673 6.89942 47.589 6.62328L43.1521 4.06163C42.6738 3.78549 42.0622 3.94937 41.786 4.42766L38.7244 9.73058L37.5341 9.04337C37.0558 8.76723 36.4442 8.9311 36.1681 9.4094L33.1064 14.7123L29.8598 12.8379C29.3815 12.5618 28.7699 12.7256 28.4938 13.2039L21.7769 24.8379C21.5008 25.3162 21.6646 25.9278 22.1429 26.204L22.4672 26.3912C22.9455 26.6673 23.5571 26.5034 23.8332 26.0251L29.8629 15.5814L31.9192 16.7686L10.5242 53.826C10.4372 53.9767 10.391 54.1475 10.3902 54.3215L10.35 63.3619C10.3492 63.536 10.303 63.7068 10.216 63.8575L9.22594 65.5723C8.9498 66.0506 9.11367 66.6622 9.59196 66.9384L9.91623 67.1256C10.3945 67.4017 11.0061 67.2378 11.2822 66.7595L12.2723 65.0447C12.3593 64.894 12.4841 64.7686 12.6345 64.6809L20.4436 60.1258C20.5939 60.0381 20.7187 59.9128 20.8057 59.762L46.4497 15.3455C46.7258 14.8672 46.5619 14.2556 46.0836 13.9795L44.8933 13.2922L47.955 7.9893ZM43.1551 6.80517L45.2115 7.99238L42.837 12.105L40.7807 10.9178L43.1551 6.80517ZM12.7317 61.8746L12.7608 55.0591L18.6215 58.4428L12.7317 61.8746ZM19.9618 56.4749L13.7929 52.9132L14.9801 50.8569L21.149 54.4186L19.9618 56.4749ZM22.3363 52.3623L16.1673 48.8006L17.3545 46.7443L23.5235 50.3059L22.3363 52.3623ZM24.7107 48.2496L18.5417 44.688L19.729 42.6317L25.8979 46.1933L24.7107 48.2496ZM27.0851 44.137L20.9162 40.5753L22.1034 38.519L28.2723 42.0807L27.0851 44.137ZM29.4595 40.0244L23.2906 36.4627L33.9755 17.9559L40.1445 21.5175L29.4595 40.0244ZM41.3317 19.4612L35.1627 15.8995L37.5372 11.7869L43.7061 15.3486L41.3317 19.4612Z" fill="#00AA8A"/>
<path d="M23.168 66.3418C23.168 65.7895 23.6157 65.3418 24.168 65.3418H49.4739C50.0262 65.3418 50.4739 65.7895 50.4739 66.3418V66.7162C50.4739 67.2685 50.0262 67.7162 49.4739 67.7162H24.168C23.6157 67.7162 23.168 67.2685 23.168 66.7162V66.3418Z" fill="#00AA8A"/>
<path d="M18.4199 66.3418C18.4199 65.7895 18.8676 65.3418 19.4199 65.3418H19.7944C20.3466 65.3418 20.7944 65.7895 20.7944 66.3418V66.7162C20.7944 67.2685 20.3466 67.7162 19.7944 67.7162H19.4199C18.8676 67.7162 18.4199 67.2685 18.4199 66.7162V66.3418Z" fill="#00AA8A"/>
</svg>
