<svg width="55" height="70" viewBox="0 0 55 70" fill="none" xmlns="http://www.w3.org/2000/svg">
<path d="M49.289 48.841L41.8982 46.5687C41.9102 46.3455 41.8938 46.1196 41.8412 45.8965C41.6793 45.2114 41.2255 44.6379 40.5959 44.323L36.0252 42.0378V38.7787C39.4449 36.4003 41.8517 32.6618 42.4535 28.3535H43.063C45.0614 28.3535 46.7756 26.8686 46.9654 24.9728C47.0717 23.9103 46.7242 22.8497 46.0119 22.0626C45.6672 21.6816 45.2506 21.3801 44.7928 21.1694V9.79297C44.7928 5.60174 41.383 2.19186 37.1917 2.19186C37.1863 2.19186 37.115 2.19186 37.0183 2.192C35.1722 0.830288 32.4601 0 29.4516 0C23.0465 0 20.104 1.33437 16.697 2.87942C14.8768 3.70478 12.9949 4.55818 10.3273 5.33829C10.0473 5.42018 9.81526 5.61747 9.68961 5.88092C9.56397 6.14424 9.55645 6.44871 9.66897 6.71791C9.70014 6.79256 10.1583 7.85609 11.3402 9.14807C10.8298 9.77629 9.86379 11.3829 9.86379 14.542V21.2151C8.68392 21.7777 7.82273 22.8921 7.69134 24.2033C7.58484 25.2658 7.93224 26.3265 8.64454 27.1139C9.35725 27.9017 10.3751 28.3534 11.4371 28.3534H12.2025C12.8038 32.663 15.2107 36.402 18.6312 38.78V42.0376L14.0603 44.3229C13.4308 44.6379 12.9769 45.2114 12.8151 45.8965C12.7625 46.1195 12.7462 46.3453 12.7581 46.5686L5.36727 48.8408C2.157 49.8279 0 52.7476 0 56.1063V68.9742C0 69.5406 0.459099 69.9996 1.02538 69.9996C1.59167 69.9996 2.05077 69.5406 2.05077 68.9742V56.1064C2.05077 53.654 3.62576 51.522 5.97006 50.8012L13.6579 48.4377L15.0148 50.247L13.4731 51.7888C12.4923 52.7694 12.2501 54.2618 12.8704 55.5026L15.8057 61.3731H13.0105V60.2066C13.0105 59.6402 12.5514 59.1812 11.9851 59.1812C11.4188 59.1812 10.9597 59.6402 10.9597 60.2066V61.3731H6.50531C5.93903 61.3731 5.47993 61.8321 5.47993 62.3985V68.9742C5.47993 69.5406 5.93903 69.9996 6.50531 69.9996H17.4649C18.0312 69.9996 18.4903 69.5406 18.4903 68.9742V66.7421L19.8356 69.4329C20.0152 69.7922 20.3773 69.9999 20.7535 69.9999C20.9076 69.9999 21.064 69.9649 21.2112 69.8913C21.7178 69.638 21.9231 69.0222 21.6698 68.5155L14.7047 54.5852C14.4798 54.1354 14.5677 53.5944 14.9233 53.2387L17.094 51.0678C17.4548 50.707 17.4954 50.1358 17.1893 49.7276L14.8662 46.6303C14.7889 46.5272 14.7986 46.4215 14.8113 46.3676C14.8241 46.3136 14.8626 46.2148 14.9779 46.1571L19.0165 44.1377L21.8676 53.9129C22.0262 54.4568 22.5952 54.7685 23.1391 54.6103C23.6828 54.4517 23.995 53.8826 23.8364 53.3389L23.387 51.7981C24.6478 52.2362 25.9809 52.4643 27.3286 52.4643C28.6767 52.4643 30.0093 52.2369 31.2699 51.7987L27.3284 65.3119L25.1155 57.7249C24.9569 57.181 24.3878 56.8689 23.844 57.0275C23.3003 57.1861 22.9882 57.7554 23.1468 58.299L26.344 69.261C26.4717 69.6985 26.8727 69.9993 27.3284 69.9993C27.7841 69.9993 28.1852 69.6985 28.3128 69.261L35.6405 44.1377L39.679 46.1571C39.7944 46.2148 39.8328 46.3138 39.8456 46.3675C39.8583 46.4215 39.8681 46.5272 39.7908 46.6303L37.4677 49.7276C37.1616 50.1357 37.2022 50.707 37.5629 51.068L39.7337 53.2388C40.0894 53.5944 40.177 54.1355 39.9523 54.5852L32.9868 68.5156C32.7334 69.0222 32.9388 69.6381 33.4453 69.8914C33.5926 69.9651 33.7491 70 33.9032 70C34.2793 70 34.6415 69.7922 34.8211 69.433L41.7862 55.5027C42.4065 54.2621 42.1644 52.7697 41.1837 51.7889L39.6418 50.247L40.9986 48.4378L48.6865 50.8015C51.0307 51.5222 52.6057 53.6541 52.6057 56.1067V68.9742C52.6057 69.5406 53.0646 69.9996 53.631 69.9996C54.1975 69.9996 54.6564 69.5406 54.6564 68.9742V56.1064C54.6563 52.7477 52.4994 49.8279 49.289 48.841ZM16.4392 67.9488H7.53043V63.4239H10.9594V63.4944C10.9594 64.0608 11.4185 64.5198 11.9848 64.5198C12.5511 64.5198 13.0102 64.0608 13.0102 63.4944V63.4239H16.4392V67.9488ZM17.5438 4.74712C20.8659 3.24063 23.4898 2.05077 29.4516 2.05077C33.2346 2.05077 36.6151 3.63396 37.315 5.73354C37.4942 6.27084 38.0745 6.56082 38.612 6.38199C39.1492 6.20289 39.4396 5.62212 39.2605 5.08495C39.2015 4.90804 39.1311 4.73454 39.0514 4.56419C41.1998 5.33063 42.7421 7.38468 42.7421 9.79297V20.8231H41.5757C40.9324 20.8231 40.4092 20.2999 40.4092 19.6566V18.5606C40.4092 13.8067 36.9674 10.3104 36.8209 10.1639C36.5506 9.89346 36.1521 9.79652 35.787 9.91109C30.0949 11.7087 22.0692 13.2236 16.1605 10.234C14.0579 9.17008 12.8164 7.81808 12.1634 6.91533C14.3401 6.20002 16.0273 5.43481 17.5438 4.74712ZM33.9745 42.525L32.0162 49.2395C30.5812 50.0084 28.969 50.4138 27.3284 50.4138C25.6888 50.4138 24.0751 50.009 22.6408 49.2406L20.682 42.525V39.9811C22.6924 40.9569 24.9475 41.5051 27.3283 41.5051C29.7088 41.5051 31.9638 40.9566 33.9745 39.9802V42.525ZM27.3283 39.4542C20.0377 39.4542 14.1064 33.5228 14.1064 26.2322C14.1064 25.6658 13.6473 25.2068 13.081 25.2068C12.5148 25.2068 12.0557 25.6658 12.0557 26.2322V26.3028H11.4371C10.9536 26.3028 10.49 26.0969 10.1653 25.738C9.83631 25.3744 9.68237 24.9021 9.73186 24.4078C9.81813 23.5476 10.636 22.8737 11.5938 22.8737H13.081C14.8551 22.8737 16.2983 21.4304 16.2983 19.6565V15.7863C16.2983 15.2199 15.8392 14.7609 15.2729 14.7609C14.7066 14.7609 14.2475 15.2199 14.2475 15.7863V19.6565C14.2475 20.2997 13.7242 20.823 13.081 20.823H11.9146V14.542C11.9146 12.1561 12.5558 10.9697 12.8519 10.549C13.4783 11.0431 14.2131 11.5326 15.073 11.9807C17.3968 13.1919 20.1626 13.8627 23.2935 13.9742C26.9631 14.1061 31.1573 13.4625 35.7676 12.0639C36.5814 13.0493 38.3586 15.5467 38.3586 18.5604V19.6565C38.3586 21.4305 39.8019 22.8737 41.5758 22.8737H43.2197C43.7033 22.8737 44.1669 23.0796 44.4916 23.4385C44.8205 23.802 44.9745 24.2743 44.925 24.7685C44.8388 25.6289 44.0211 26.3028 43.0633 26.3028H42.6006V26.2429C42.6006 25.6767 42.1418 25.2178 41.5757 25.2175C41.5755 25.2175 41.5754 25.2175 41.5753 25.2175C41.0092 25.2175 40.5503 25.676 40.5499 26.2421C40.5443 33.5272 34.6132 39.4542 27.3283 39.4542Z" fill="#00AA8A"/>
<path d="M48.1517 61.921H46.4372V60.2065C46.4372 59.6401 45.9783 59.1812 45.4118 59.1812C44.8454 59.1812 44.3864 59.6401 44.3864 60.2065V61.921H42.6719C42.1054 61.921 41.6465 62.3799 41.6465 62.9464C41.6465 63.5128 42.1054 63.9718 42.6719 63.9718H44.3864V65.6862C44.3864 66.2526 44.8454 66.7116 45.4118 66.7116C45.9783 66.7116 46.4372 66.2526 46.4372 65.6862V63.9718H48.1517C48.7181 63.9718 49.177 63.5128 49.177 62.9464C49.177 62.3799 48.7178 61.921 48.1517 61.921Z" fill="#00AA8A"/>
</svg>
