<svg width="36" height="33" viewBox="0 0 36 33" fill="none" xmlns="http://www.w3.org/2000/svg">
<path d="M10.324 29.496C10.0629 28.5269 9.06138 27.9518 8.08698 28.2115C7.11258 28.4711 6.53433 29.4672 6.79542 30.4362C7.05651 31.4053 8.05807 31.9804 9.03247 31.7207C10.0069 31.4611 10.5851 30.465 10.324 29.496Z" fill="#EB5569"/>
<path d="M33.1106 23.9379C32.9381 23.2979 32.2766 22.918 31.633 23.0895C30.9894 23.261 30.6074 23.9189 30.7799 24.559C30.9523 25.1991 31.6139 25.5789 32.2575 25.4074C32.9011 25.2359 33.283 24.578 33.1106 23.9379Z" fill="#EB5569"/>
<path d="M29.8429 2.00213C29.5889 1.05936 28.6145 0.499875 27.6665 0.75249C26.7185 1.0051 26.1559 1.97416 26.4099 2.91693C26.6639 3.8597 27.6383 4.41918 28.5863 4.16656C29.5343 3.91395 30.0969 2.9449 29.8429 2.00213Z" fill="#EB5569"/>
<path d="M19.1955 18.0477C18.9587 17.1687 18.0502 16.6471 17.1664 16.8826C16.2826 17.1181 15.7581 18.0216 15.9949 18.9005C16.2318 19.7795 17.1402 20.3011 18.024 20.0656C18.9078 19.8301 19.4323 18.9266 19.1955 18.0477Z" fill="#EB5569"/>
<path d="M23.3108 15.5818C23.1496 14.9835 22.5313 14.6285 21.9297 14.7888C21.3281 14.9491 20.9711 15.564 21.1323 16.1623C21.2935 16.7606 21.9119 17.1156 22.5134 16.9553C23.115 16.795 23.472 16.18 23.3108 15.5818Z" fill="#EB5569"/>
<path d="M18.9578 13.0961C18.8224 12.5937 18.3032 12.2956 17.7981 12.4302C17.2929 12.5648 16.9931 13.0812 17.1285 13.5835C17.2639 14.0859 17.7831 14.384 18.2882 14.2494C18.7934 14.1148 19.0932 13.5984 18.9578 13.0961Z" fill="#EB5569"/>
</svg>
