<svg width="16" height="16" viewBox="0 0 16 16" fill="none" xmlns="http://www.w3.org/2000/svg">
<g clip-path="url(#clip0_609_1454)">
<path d="M5.21138 4.46234C5.31858 4.68154 5.43378 4.87354 5.47858 5.10234C5.60338 5.73754 5.88978 6.30874 6.31858 6.78074C6.59058 7.07994 6.57458 7.38714 6.48178 7.69594C6.40178 7.96314 6.42578 8.15834 6.60338 8.36314C6.84018 8.63834 7.07698 8.91194 7.40498 9.08634C7.78418 9.28954 8.31538 9.25434 8.74418 8.91994C9.09458 8.64634 9.35698 8.29594 9.60018 7.92794C9.64338 7.86394 9.62578 7.80794 9.61298 7.74714C9.59698 7.67194 9.58258 7.59674 9.56658 7.52314C9.50098 7.22074 9.59058 6.98074 9.79698 6.74394C10.2098 6.26874 10.485 5.71514 10.613 5.09594C10.6594 4.87194 10.7778 4.68634 10.9026 4.48794C10.8994 4.56474 10.9026 4.64314 10.8914 4.71994C10.773 5.51034 10.8626 6.29114 11.0034 7.06554C11.0626 7.38394 11.1666 7.69754 11.2946 7.99994C11.3698 8.17594 11.549 8.17274 11.6866 8.22874C12.1842 8.42714 12.6674 8.65114 13.125 8.93274C13.5394 9.18714 13.749 9.57434 13.8962 10.0111C14.1266 10.6927 14.3282 11.3823 14.4658 12.0911C14.6162 12.8687 14.6754 13.6495 14.6306 14.4399C14.6098 14.7855 14.3922 14.9919 14.1026 15.1007C13.4162 15.3583 12.709 15.5583 11.989 15.7055C11.565 15.7919 11.1394 15.8575 10.717 15.9391C10.397 16.0015 10.0834 15.9935 9.76498 15.9951C8.92658 16.0015 8.08658 15.9839 7.24818 16.0015C6.44178 16.0175 5.64978 15.9327 4.85618 15.7839C4.03858 15.6319 3.23218 15.4495 2.44498 15.1887C2.22258 15.1151 2.00338 15.0319 1.78738 14.9407C1.45298 14.7999 1.40018 14.4991 1.37618 14.1983C1.33938 13.7295 1.42418 13.2655 1.47378 12.8031C1.54098 12.1807 1.64818 11.5631 1.80178 10.9551C1.94578 10.3839 2.12018 9.82074 2.43378 9.31994C2.68498 8.91834 3.09138 8.69754 3.52818 8.53754C3.89138 8.40634 4.25618 8.27994 4.61938 8.14714C4.70258 8.11674 4.76178 8.06394 4.80018 7.96794C5.01778 7.40954 5.14258 6.83514 5.19698 6.23674C5.24498 5.71834 5.26738 5.20474 5.19058 4.68794C5.18258 4.62234 5.16818 4.55194 5.21138 4.46234ZM7.56178 13.7135C7.56178 13.8607 7.56818 13.9823 7.56018 14.1039C7.55218 14.2255 7.59058 14.2783 7.72018 14.2719C7.91218 14.2639 8.10418 14.2639 8.29618 14.2719C8.42738 14.2783 8.46098 14.2207 8.45778 14.1023C8.45138 13.8719 8.46258 13.6415 8.45298 13.4111C8.44818 13.2735 8.48818 13.2143 8.63698 13.2207C8.86738 13.2303 9.09778 13.2175 9.32818 13.2255C9.45458 13.2303 9.50098 13.1791 9.49938 13.0575C9.49618 12.8655 9.49138 12.6735 9.50098 12.4831C9.50898 12.3471 9.44338 12.3215 9.32818 12.3231C9.11058 12.3279 8.89298 12.3247 8.67538 12.3279C8.51698 12.3311 8.44178 12.2703 8.45138 12.0991C8.46418 11.8767 8.45298 11.6511 8.45778 11.4271C8.45938 11.3215 8.42418 11.2783 8.31218 11.2815C8.11378 11.2879 7.91538 11.2863 7.71698 11.2815C7.60498 11.2799 7.55538 11.3167 7.55858 11.4367C7.56498 11.6671 7.55218 11.8975 7.56338 12.1279C7.56978 12.2751 7.50258 12.3215 7.37138 12.3215C7.20498 12.3215 7.03858 12.3231 6.87218 12.3247C6.51538 12.3295 6.51538 12.3311 6.51698 12.6943C6.51858 13.2239 6.51858 13.2207 7.04498 13.2255C7.20978 13.2271 7.41938 13.1535 7.52498 13.2607C7.63378 13.3647 7.54418 13.5759 7.56178 13.7135ZM5.88498 3.73594C5.66738 3.73594 5.44978 3.73114 5.23218 3.73754C5.08658 3.74234 5.02738 3.68794 5.02258 3.53754C5.00978 3.16634 4.98418 2.79194 5.03538 2.42554C5.15858 1.55354 5.61938 0.577539 6.76818 0.227139C7.28498 0.0687393 7.80498 -0.0496607 8.33778 0.0191393C9.33938 0.147139 10.221 0.519939 10.7106 1.47514C11.0258 2.08794 11.0242 2.76794 10.997 3.44154C10.9954 3.50234 11.005 3.56474 10.8898 3.54234C10.8002 3.52474 10.7858 3.64154 10.7714 3.70874C10.749 3.81434 10.7186 3.83034 10.6178 3.77754C10.181 3.54874 9.89458 3.19194 9.71858 2.74234C9.67058 2.61914 9.64978 2.59674 9.52658 2.68314C8.72818 3.23994 7.84018 3.55194 6.87538 3.67994C6.54578 3.72474 6.21618 3.73914 5.88498 3.73594Z" fill="#000"/>
</g>
<defs>
<clipPath id="clip0_609_1454">
<rect width="16" height="16" fill="white"/>
</clipPath>
</defs>
</svg>
