<svg width="16" height="16" viewBox="0 0 16 16" fill="none" xmlns="http://www.w3.org/2000/svg">
<path d="M14.2684 15.2881C14.2044 14.6753 14.1884 14.0577 14.1276 13.4433C14.0364 12.5233 13.9052 11.6081 13.6332 10.7201C13.486 10.2449 13.262 9.83208 12.8156 9.56968C12.3884 9.31848 11.9228 9.16968 11.4556 9.02408C11.2924 8.97288 11.3212 9.08808 11.3308 9.17128C11.374 9.57288 11.3372 9.96968 11.254 10.3617C11.2268 10.4881 11.27 10.5457 11.3788 10.6081C11.8396 10.8657 12.102 11.2593 12.1308 11.7921C12.1596 12.3409 12.0476 12.8801 12.014 13.4241C11.9916 13.7937 11.9516 14.1649 11.7964 14.5089C11.6092 14.9249 11.286 15.0897 10.8444 15.0049C10.6764 14.9729 10.566 14.8961 10.5932 14.7105C10.6204 14.5281 10.7468 14.4641 10.9148 14.4977C11.126 14.5393 11.2492 14.4401 11.3356 14.2673C11.3948 14.1473 11.4268 14.0161 11.4396 13.8833C11.502 13.2705 11.5692 12.6577 11.6188 12.0433C11.6636 11.4881 11.366 11.0673 10.8732 10.9553C10.3644 10.8401 9.92602 11.0705 9.71642 11.5889C9.54842 12.0033 9.41082 12.4305 9.25082 12.8497C9.15962 13.0865 9.08122 13.3249 9.03322 13.5729C8.97082 13.8945 9.03482 14.0129 9.33242 14.1473C9.47482 14.2113 9.54362 14.3121 9.49402 14.4641C9.44442 14.6177 9.33242 14.6609 9.17882 14.6321C8.74042 14.5489 8.48602 14.2369 8.49402 13.7873C8.49722 13.6033 8.52442 13.4257 8.57562 13.2497C8.76442 12.5969 9.01242 11.9649 9.26522 11.3345C9.49242 10.7681 9.94522 10.4561 10.5612 10.4129C10.6812 10.4033 10.7324 10.3697 10.7548 10.2529C10.83 9.86408 10.8412 9.47528 10.806 9.08168C10.79 8.89608 10.718 8.79528 10.5244 8.76488C10.3676 8.74088 10.2108 8.68808 10.0636 8.62728C9.91642 8.56808 9.85242 8.58568 9.80122 8.75208C9.62042 9.35688 9.36762 9.93448 9.07482 10.4945C8.93402 10.7649 8.77082 11.0241 8.59002 11.3377C8.51802 10.9409 8.46362 10.6033 8.39322 10.2673C8.36122 10.1169 8.36442 9.98088 8.43002 9.83848C8.46682 9.75688 8.56442 9.66088 8.46682 9.57288C8.31162 9.43208 8.14202 9.30888 7.97722 9.17928C7.97242 9.17448 7.95002 9.18568 7.94042 9.19368C7.78042 9.33128 7.59802 9.44968 7.47322 9.61288C7.39802 9.71048 7.54362 9.83848 7.57562 9.95688C7.58202 9.98408 7.59642 10.0129 7.59322 10.0385C7.52602 10.4513 7.45562 10.8625 7.38042 11.3137C7.32762 11.2513 7.30362 11.2273 7.28762 11.2001C6.86522 10.5185 6.52122 9.80168 6.26042 9.04328C6.20762 8.88808 6.21242 8.64808 6.07962 8.59848C5.95482 8.55208 5.76762 8.67528 5.60762 8.72008C5.52442 8.74408 5.45082 8.76648 5.41882 8.86408C5.35802 9.05288 5.27162 9.23208 5.22682 9.42088C4.93242 10.6497 5.00602 11.8657 5.38522 13.0673C5.44282 13.2497 5.51162 13.3489 5.71962 13.3889C6.12122 13.4689 6.33722 13.9089 6.19962 14.2897C6.05562 14.6913 5.62202 14.8801 5.24442 14.7073C4.86362 14.5345 4.70042 14.0657 4.92122 13.7169C5.00122 13.5905 4.99162 13.4929 4.94842 13.3681C4.54202 12.2017 4.43322 11.0081 4.62042 9.78568C4.66362 9.50408 4.75802 9.23528 4.82202 8.93768C4.26362 9.10088 3.72762 9.23688 3.24442 9.51848C2.88922 9.72488 2.61402 9.99528 2.45882 10.3889C2.27322 10.8609 2.16122 11.3505 2.06682 11.8465C1.84922 12.9985 1.78202 14.1681 1.69402 15.3345C1.67002 15.6529 1.81242 15.8497 2.06522 15.9985H13.8876C14.1884 15.8561 14.3036 15.6289 14.2684 15.2881ZM5.32762 5.44808C5.43642 5.47688 5.48762 5.52968 5.52922 5.62888C5.77402 6.21448 6.07642 6.76488 6.52602 7.22248C6.88122 7.58568 7.29242 7.85768 7.81402 7.91048C8.47002 7.97768 8.98202 7.68488 9.42522 7.24168C9.87642 6.78888 10.19 6.24488 10.4348 5.65608C10.4684 5.57608 10.4796 5.47528 10.6012 5.46408C11.038 5.42248 11.3788 4.73128 11.3068 4.31048C11.286 4.19048 11.2412 4.08008 11.11 4.07208C10.9468 4.06088 10.9772 3.97448 11.0012 3.87368C11.0876 3.51208 11.1244 3.14248 11.142 2.82568C11.1532 2.50408 11.1228 2.23688 11.0588 1.98088C10.9612 1.59368 10.7612 1.26088 10.398 1.07528C10.1836 0.964882 10.0188 0.843282 9.94682 0.604882C9.91962 0.512082 9.82842 0.451282 9.75322 0.388882C9.47482 0.158482 9.14522 0.0576819 8.80282 0.0240819C7.77722 -0.0767181 6.82042 0.142482 5.97402 0.739282C5.39002 1.14888 4.98842 1.68968 4.90682 2.42568C4.85242 2.91048 4.87962 3.39048 4.97082 3.86888C4.99002 3.97128 5.03162 4.07848 4.85082 4.07528C4.76922 4.07368 4.71642 4.14248 4.68922 4.22248C4.53882 4.65128 4.88602 5.33128 5.32762 5.44808Z" fill="#000"/>
</svg>
