<svg width="36" height="33" fill="none" xmlns="http://www.w3.org/2000/svg"><path d="M10.324 29.496a1.828 1.828 0 00-2.237-1.284 1.815 1.815 0 00-1.292 2.224 1.828 1.828 0 002.237 1.285 1.815 1.815 0 001.292-2.225zm22.786-5.558a1.207 1.207 0 00-2.33.621 1.207 1.207 0 002.33-.621zM29.843 2.002a1.778 1.778 0 00-2.177-1.25 1.766 1.766 0 00-1.256 2.165 1.778 1.778 0 002.176 1.25 1.766 1.766 0 001.257-2.165zM19.195 18.048a1.658 1.658 0 00-2.029-1.165 1.647 1.647 0 00-1.171 2.018 1.658 1.658 0 002.029 1.165 1.647 1.647 0 001.171-2.018zm4.115-2.466a1.128 1.128 0 00-2.178.58 1.128 1.128 0 002.179-.58zm-4.352-2.486a.947.947 0 00-1.83.488.947.947 0 001.83-.488z" fill="#EB5569"/></svg>